<svg width="14" height="14" viewBox="0 0 14 14" fill="none" xmlns="http://www.w3.org/2000/svg">
<path d="M6.27778 10.4397C3.78168 10.4397 1.94444 8.60249 1.94444 6.10639C1.94444 3.61029 3.78168 1.77306 6.27778 1.77306C8.77388 1.77306 10.6111 3.61029 10.6111 6.10639C10.6111 8.60249 8.77388 10.4397 6.27778 10.4397ZM6.27778 11.8842C9.48343 11.8842 12.0556 9.31204 12.0556 6.10639C12.0556 2.90074 9.48343 0.328613 6.27778 0.328613C3.07212 0.328613 0.5 2.90074 0.5 6.10639C0.5 9.31204 3.07212 11.8842 6.27778 11.8842ZM13.2846 12.0996L10.3957 9.21068C10.269 9.0713 10.0916 8.99528 9.88889 8.99528C9.4961 8.99528 9.16667 9.32471 9.16667 9.7175C9.16667 9.92023 9.24269 10.0976 9.38207 10.2243L12.271 13.1132C12.3977 13.2526 12.575 13.3286 12.7778 13.3286C13.1706 13.3286 13.5 12.9992 13.5 12.6064C13.5 12.4037 13.424 12.2263 13.2846 12.0996Z" fill="#9B9B9E"/>
</svg>
